<?xml version="1.0" standalone="no"?>
<!DOCTYPE svg PUBLIC "-//W3C//DTD SVG 20010904//EN"
 "http://www.w3.org/TR/2001/REC-SVG-20010904/DTD/svg10.dtd">
<svg version="1.0" xmlns="http://www.w3.org/2000/svg"
 width="279.000000pt" height="243.000000pt" viewBox="0 0 279.000000 243.000000"
 preserveAspectRatio="xMidYMid meet">

<g transform="translate(0.000000,243.000000) scale(0.100000,-0.100000)"
fill="#000000" stroke="none">
<path d="M1283 2202 c-67 -24 -118 -64 -154 -120 -44 -70 -49 -100 -49 -318
l0 -201 -77 -13 c-93 -14 -182 -58 -224 -109 -31 -38 -59 -115 -59 -162 0 -24
-9 -33 -71 -65 -54 -29 -79 -49 -109 -91 -52 -73 -63 -128 -58 -298 3 -133 5
-143 32 -193 44 -79 205 -230 293 -274 111 -56 157 -60 629 -56 404 4 421 5
478 26 89 33 143 68 210 137 122 123 160 246 154 495 -3 136 -7 162 -27 208
-29 65 -103 134 -171 158 -27 10 -50 24 -50 31 0 23 -37 87 -67 115 -40 38
-105 64 -200 78 l-81 12 -4 217 c-3 205 -4 219 -27 265 -69 140 -228 208 -368
158z m178 -201 l39 -39 0 -340 c0 -327 1 -342 19 -352 46 -24 101 1 101 47 0
27 33 63 58 63 39 0 138 -22 160 -36 19 -13 22 -23 22 -79 l0 -64 43 -11 c120
-30 152 -45 175 -80 23 -34 24 -41 20 -200 -3 -157 -4 -168 -31 -222 -35 -71
-104 -140 -176 -176 l-56 -27 -440 0 -440 0 -56 26 c-60 29 -200 153 -225 201
-10 19 -14 63 -14 151 0 141 8 160 81 197 l39 20 0 -74 c0 -66 3 -77 22 -90
30 -21 54 -20 78 4 19 19 20 33 20 203 0 226 6 236 133 252 52 7 61 5 83 -16
14 -13 24 -34 24 -50 0 -46 64 -66 102 -32 17 15 18 39 18 351 l0 334 39 39
c33 33 45 39 81 39 36 0 48 -6 81 -39z"/>
</g>
</svg>
